<?xml version="1.0" encoding="UTF-8"?>
<svg version="1.1" xmlns="http://www.w3.org/2000/svg" width="512" height="512">
<path d="M0 0 C2.09171409 -0.00969958 4.1824424 -0.04073325 6.27392578 -0.07226562 C7.61115956 -0.07879702 8.94840033 -0.08404696 10.28564453 -0.08789062 C12.10298096 -0.10190918 12.10298096 -0.10190918 13.95703125 -0.11621094 C17.62160698 0.28276599 19.4201494 0.8610395 22.23095703 3.24023438 C24.23095703 9.24023437 24.23095703 9.24023437 24.23095703 28.24023438 C41.72095703 28.24023438 59.21095703 28.24023438 77.23095703 28.24023438 C77.23095703 20.65023437 77.23095703 13.06023438 77.23095703 5.24023438 C83.35416357 -0.88297217 88.30148349 0.02406771 96.57275391 0 C98.59205429 -0.00969885 100.61033315 -0.04073319 102.62939453 -0.07226562 C103.90814453 -0.07742188 105.18689453 -0.08257812 106.50439453 -0.08789062 C108.25888916 -0.10190918 108.25888916 -0.10190918 110.04882812 -0.11621094 C113.58446252 0.2798322 115.41034864 1.10744211 118.23095703 3.24023438 C122.86822708 10.19613945 120.23095703 19.88027691 120.23095703 28.24023438 C137.72095703 28.24023438 155.21095703 28.24023438 173.23095703 28.24023438 C173.23095703 21.31023438 173.23095703 14.38023438 173.23095703 7.24023438 C176.77290714 1.33698419 176.77290714 1.33698419 180.23095703 0.24023438 C184.48957464 -0.1572366 188.74462175 -0.13138123 193.02050781 -0.13037109 C195.09279992 -0.1347379 197.16294853 -0.17106247 199.23486328 -0.20898438 C201.2090625 -0.21478516 201.2090625 -0.21478516 203.22314453 -0.22070312 C204.42310059 -0.2289209 205.62305664 -0.23713867 206.859375 -0.24560547 C210.91938976 0.33943648 213.08198436 1.65016774 216.23095703 4.24023438 C218.76297423 11.83628598 217.23095703 20.23329294 217.23095703 28.24023438 C234.72095703 28.24023438 252.21095703 28.24023438 270.23095703 28.24023438 C270.23095703 20.98023437 270.23095703 13.72023437 270.23095703 6.24023438 C274.23095703 1.24023437 274.23095703 1.24023437 277.23095703 0.24023438 C281.34290747 0.01358603 285.45500175 0.01198182 289.57275391 0 C291.59205429 -0.00969885 293.61033315 -0.04073319 295.62939453 -0.07226562 C296.90814453 -0.07742188 298.18689453 -0.08257812 299.50439453 -0.08789062 C301.25888916 -0.10190918 301.25888916 -0.10190918 303.04882812 -0.11621094 C307.5283204 0.38555818 310.08867497 2.09795232 313.23095703 5.24023438 C313.23095703 12.83023437 313.23095703 20.42023437 313.23095703 28.24023438 C330.72095703 28.24023438 348.21095703 28.24023438 366.23095703 28.24023438 C366.23095703 21.97023438 366.23095703 15.70023438 366.23095703 9.24023438 C369.23095703 2.24023438 369.23095703 2.24023438 370.99487305 0.8215332 C375.90361218 -0.45455675 381.03677417 -0.09146159 386.07543945 -0.07543945 C388.15841066 -0.07228086 390.23995823 -0.09575081 392.32275391 -0.12109375 C393.64210938 -0.12173828 394.96146484 -0.12238281 396.32080078 -0.12304688 C397.52599365 -0.12602783 398.73118652 -0.12900879 399.97290039 -0.13208008 C403.54549393 0.27617808 405.38505733 1.07991042 408.23095703 3.24023438 C410.43287927 6.54311774 410.47055672 7.51486164 410.42626953 11.34570312 C410.41982422 12.32861328 410.41337891 13.31152344 410.40673828 14.32421875 C410.38998047 15.34837891 410.37322266 16.37253906 410.35595703 17.42773438 C410.34693359 18.46349609 410.33791016 19.49925781 410.32861328 20.56640625 C410.30503563 23.12458122 410.27212733 25.68229185 410.23095703 28.24023438 C410.90562012 28.21405029 411.5802832 28.18786621 412.27539062 28.16088867 C415.38533453 28.05580502 418.49490351 27.99156021 421.60595703 27.92773438 C422.66685547 27.88583984 423.72775391 27.84394531 424.82080078 27.80078125 C432.30887916 27.68593342 438.04597168 28.84714043 444.23095703 33.24023438 C449.61229308 38.99262813 451.3536511 43.32233168 451.36797142 51.24003124 C451.37062325 51.96034319 451.37327507 52.68065514 451.37600726 53.42279473 C451.38371384 55.85513359 451.38425995 58.28742207 451.38485718 60.71977234 C451.3888709 62.47382591 451.39330897 64.22787856 451.39813673 65.98193008 C451.41011805 70.81677689 451.41575428 75.65161373 451.42031789 80.48647249 C451.42626803 85.69521706 451.43787929 90.90394965 451.4486084 96.11268616 C451.4731451 108.6988983 451.487761 121.2851144 451.50066847 133.87134311 C451.50437934 137.42490769 451.50835265 140.97847188 451.51242113 144.53203607 C451.53765554 166.58889995 451.55971339 188.64576444 451.57214928 210.70263958 C451.57507908 215.81307159 451.57804073 220.92350358 451.58105469 226.03393555 C451.58180074 227.30414245 451.58254679 228.57434936 451.58331545 229.88304738 C451.59597335 250.46691459 451.62920162 271.05069549 451.67085652 291.63452234 C451.71325158 312.75684832 451.73684147 333.87913009 451.74206984 355.00149852 C451.74548661 366.86526677 451.75727322 378.72890014 451.79017258 390.59262657 C451.81814078 400.69482465 451.82918656 410.79686021 451.81797712 420.89909401 C451.81278232 426.0545392 451.81573072 431.20964386 451.84044266 436.36503983 C451.86287749 441.0847261 451.86224018 445.80382609 451.84323879 450.52352224 C451.84043069 452.23083945 451.84608218 453.93819594 451.86105172 455.64544984 C451.94946753 466.38592831 451.22111393 473.13666482 443.48095703 481.05273438 C435.29723076 486.56101167 427.10289257 486.67338922 417.4644165 486.62791443 C416.07839997 486.63209265 414.69238686 486.63757285 413.30638003 486.64423424 C409.51677119 486.65864258 405.72738068 486.65445874 401.93776011 486.64706743 C397.84369431 486.64232684 393.74967513 486.65485316 389.65562439 486.66508484 C381.64402901 486.68225815 373.63251211 486.68311626 365.6209031 486.67787194 C359.1108547 486.67382787 352.60082946 486.67527659 346.09078217 486.68062019 C345.16369917 486.68136862 344.23661618 486.68211704 343.28143977 486.68288814 C341.39804722 486.68441962 339.51465469 486.68595797 337.63126215 486.68750311 C319.98172257 486.70122171 302.33222736 486.69579395 284.6826888 486.68431789 C268.52997844 486.67437631 252.37738247 486.68734329 236.22468975 486.71125209 C219.63691673 486.73562 203.04919704 486.74525726 186.46140647 486.73859936 C177.14928848 486.73510327 167.83725858 486.7373654 158.52515411 486.75485039 C150.60204003 486.76954311 142.67907613 486.77024581 134.75596508 486.75277948 C130.71275697 486.74424468 126.66981752 486.74218024 122.62662315 486.75743103 C118.92693181 486.77121378 115.22774092 486.76659866 111.528079 486.74719179 C109.55284458 486.74161838 107.57758508 486.75575621 105.60239816 486.7705459 C104.43105569 486.76073161 103.25971322 486.75091732 102.05287552 486.74080563 C101.04200229 486.74069829 100.03112906 486.74059095 98.98962331 486.74048036 C95.45363683 486.0992781 93.77477652 484.73497869 91.23095703 482.24023438 C90.90095703 481.25023437 90.57095703 480.26023437 90.23095703 479.24023438 C83.96095703 478.91023438 77.69095703 478.58023437 71.23095703 478.24023438 C70.90095703 479.89023437 70.57095703 481.54023438 70.23095703 483.24023438 C65.89412832 487.26311156 60.64295085 486.66366938 55.07568359 486.62841797 C53.54545563 486.63630341 53.54545563 486.63630341 51.98431396 486.64434814 C48.61324732 486.65754654 45.24265347 486.64880771 41.87158203 486.63867188 C39.52374176 486.64069327 37.17590209 486.64360526 34.82806396 486.64736938 C29.90533475 486.65179306 24.98276882 486.64536243 20.06005859 486.63134766 C13.76428274 486.61429364 7.46889164 486.62407295 1.17313004 486.64206505 C-3.67745838 486.65293377 -8.52795645 486.64944169 -13.37854767 486.64168167 C-15.69887589 486.63968625 -18.01921243 486.64211572 -20.33953094 486.64912033 C-23.59197013 486.65678125 -26.8437975 486.64506355 -30.09619141 486.62841797 C-31.04715698 486.63449066 -31.99812256 486.64056335 -32.97790527 486.64682007 C-40.72996979 486.5737153 -48.24775212 485.33888737 -54.14404297 479.92773438 C-54.77052734 479.37472656 -55.39701172 478.82171875 -56.04248047 478.25195312 C-60.17128593 473.44124088 -61.14437045 469.11299807 -61.1493597 462.87129402 C-61.15401962 462.14752054 -61.15867954 461.42374705 -61.16348067 460.67804104 C-61.17543528 458.25182005 -61.16603367 455.82615857 -61.15672302 453.39993286 C-61.16089574 451.64328765 -61.16637292 449.88664513 -61.17304283 448.13000762 C-61.18752434 443.30188459 -61.18324426 438.47393187 -61.17587602 433.6457994 C-61.17115333 428.43914283 -61.18364626 423.23252358 -61.19389343 418.02587891 C-61.21110461 407.82509999 -61.21191661 397.62438261 -61.20668053 387.42359294 C-61.20264179 379.13337033 -61.20407887 370.84316592 -61.20942879 362.55294418 C-61.21017721 361.37376302 -61.21092563 360.19458185 -61.21169673 358.97966792 C-61.21322819 356.58428097 -61.21476653 354.18889403 -61.2163117 351.79350708 C-61.23004522 329.32107417 -61.22459314 306.84867606 -61.21312649 284.37624393 C-61.20319395 263.81197463 -61.21613365 243.2477953 -61.24006068 222.68353988 C-61.26443657 201.57467028 -61.27406322 180.46584262 -61.26740795 159.35695922 C-61.26391228 147.50332834 -61.26617072 135.64976665 -61.28365898 123.79614639 C-61.29836209 113.70500255 -61.29904117 103.61397663 -61.28158807 93.52283515 C-61.27306 88.37350093 -61.27097261 83.22437754 -61.28623962 78.07505417 C-61.3000429 73.36109257 -61.29537977 68.64752332 -61.27600039 63.93358468 C-61.27222665 62.22838514 -61.27520178 60.5231545 -61.28561204 58.81798257 C-61.38668134 40.99557568 -61.38668134 40.99557568 -54.80419922 34.21679688 C-54.15322266 33.77078125 -53.50224609 33.32476562 -52.83154297 32.86523438 C-52.18314453 32.40375 -51.53474609 31.94226563 -50.86669922 31.46679688 C-46.54270209 28.93842611 -43.04468964 27.99129698 -38.03076172 28.04492188 C-36.43071289 28.05458984 -36.43071289 28.05458984 -34.79833984 28.06445312 C-33.69554688 28.08121094 -32.59275391 28.09796875 -31.45654297 28.11523438 C-30.33441406 28.12425781 -29.21228516 28.13328125 -28.05615234 28.14257812 C-25.29356388 28.16608952 -22.53141365 28.19895283 -19.76904297 28.24023438 C-19.78999023 27.59997314 -19.8109375 26.95971191 -19.83251953 26.30004883 C-19.91593581 23.38443862 -19.96778266 20.46907986 -20.01904297 17.55273438 C-20.05255859 16.54533203 -20.08607422 15.53792969 -20.12060547 14.5 C-20.21941842 7.01491865 -20.21941842 7.01491865 -17.94091797 3.09570312 C-12.9633541 -1.15671205 -6.19993887 0.01741964 0 0 Z " fill="#030202" transform="translate(60.76904296875,12.759765625)"/>
<path d="M0 0 C17.82 0 35.64 0 54 0 C54.33 7.26 54.66 14.52 55 22 C58.29313389 27.22645238 58.29313389 27.22645238 62.22045898 27.61523438 C64.08939819 27.60459961 64.08939819 27.60459961 65.99609375 27.59375 C67.0019326 27.59381042 67.0019326 27.59381042 68.02809143 27.59387207 C69.44273272 27.58852414 70.85737397 27.57097156 72.27172852 27.54199219 C74.42752743 27.50019336 76.58019287 27.50091996 78.73632812 27.5078125 C87.22490618 27.47314983 87.22490618 27.47314983 95 24 C95.33 16.08 95.66 8.16 96 0 C114.15 0 132.3 0 151 0 C151.33 7.59 151.66 15.18 152 23 C155.45331708 27.24571192 155.45331708 27.24571192 159.23632812 27.48583984 C160.48865234 27.47762207 161.74097656 27.4694043 163.03125 27.4609375 C164.04064636 27.45956284 164.04064636 27.45956284 165.07043457 27.4581604 C166.48924845 27.45213453 167.9080502 27.43641859 169.32666016 27.41162109 C171.4929922 27.37511808 173.65761124 27.3706019 175.82421875 27.37109375 C183.77419339 27.70570025 183.77419339 27.70570025 191 25 C194.73868664 17.52262672 192.63686665 8.35206699 193 0 C211.15 0 229.3 0 248 0 C248.33 7.92 248.66 15.84 249 24 C254.53618366 28.15213775 259.6316002 27.52214032 266.27172852 27.50097656 C268.42795422 27.5000043 270.58061615 27.54163699 272.73632812 27.5859375 C274.11457595 27.59114535 275.49283608 27.59383268 276.87109375 27.59375 C278.11818115 27.60083984 279.36526855 27.60792969 280.65014648 27.61523438 C284.75773717 27.18850219 284.75773717 27.18850219 289 22 C289.33 14.74 289.66 7.48 290 0 C307.82 0 325.64 0 344 0 C344.33 7.26 344.66 14.52 345 22 C348.29333932 27.23401602 348.29333932 27.23401602 352.23632812 27.59936523 C353.48865234 27.58591064 354.74097656 27.57245605 356.03125 27.55859375 C356.70418091 27.55626236 357.37711182 27.55393097 358.07043457 27.55152893 C359.48930589 27.54181106 360.90813953 27.52006812 362.32666016 27.48706055 C364.49310021 27.43765734 366.65726622 27.42557907 368.82421875 27.41992188 C376.77449448 27.71852182 376.77449448 27.71852182 384 25 C385.25838557 22.48322887 385.20818973 20.58706712 385.31640625 17.7734375 C385.35830078 16.7421875 385.40019531 15.7109375 385.44335938 14.6484375 C385.50233398 13.02808594 385.50233398 13.02808594 385.5625 11.375 C385.60568359 10.28703125 385.64886719 9.1990625 385.69335938 8.078125 C385.7996453 5.3855483 385.90168057 2.69287747 386 0 C389.41659491 -0.05816623 392.83306205 -0.09365195 396.25 -0.125 C397.21808594 -0.14175781 398.18617188 -0.15851562 399.18359375 -0.17578125 C400.11816406 -0.18222656 401.05273438 -0.18867187 402.015625 -0.1953125 C402.87446289 -0.20578613 403.73330078 -0.21625977 404.61816406 -0.22705078 C407.24732771 0.02357675 408.78976111 0.56757 411 2 C413.16189853 5.24284779 413.24626755 6.10096221 413.22705078 9.83862305 C413.22689972 10.8194133 413.22674866 11.80020355 413.22659302 12.81071472 C413.21627045 13.86704605 413.20594788 14.92337738 413.1953125 16.01171875 C413.19106766 17.63676079 413.19106766 17.63676079 413.18673706 19.29463196 C413.17553091 22.75903308 413.15042534 26.22317685 413.125 29.6875 C413.11497077 32.03450148 413.10584482 34.381507 413.09765625 36.72851562 C413.07559016 42.48576507 413.04210827 48.24286415 413 54 C411.86917657 54.00146521 411.86917657 54.00146521 410.71550822 54.00296003 C366.06536601 54.06119242 321.41527274 54.13495906 276.76519082 54.22898628 C271.40775115 54.24025487 266.05031121 54.25139325 260.69287109 54.26245117 C259.62627086 54.26465486 258.55967063 54.26685854 257.46074918 54.269129 C240.17520056 54.30453163 222.88965199 54.32937901 205.60408053 54.35034702 C187.87639758 54.37208547 170.14876181 54.40511722 152.42111897 54.44870156 C141.47626774 54.47525203 130.53147533 54.49292237 119.58659348 54.49934604 C112.08815441 54.50458956 104.58978944 54.5207715 97.09139004 54.54566566 C92.76083851 54.55971631 88.43041974 54.56883824 84.09984398 54.56500816 C80.13838194 54.56161066 76.177204 54.5718887 72.2158002 54.59323552 C70.77967828 54.59852603 69.34352703 54.59871476 67.90740523 54.59339563 C65.96079819 54.58691796 64.01415487 54.60053103 62.06759262 54.61523914 C60.44314905 54.61808705 60.44314905 54.61808705 58.78588843 54.62099248 C55.64310639 55.04855376 54.25976729 55.80919436 52 58 C51.33740346 60.83568858 51.71832307 63.04239226 52 66 C59.1063352 73.1063352 71.95652761 68.64130456 82 69 C82 91.44 82 113.88 82 137 C73.09 137 64.18 137 55 137 C54.97421875 134.44765625 54.9484375 131.8953125 54.921875 129.265625 C54.88344696 126.78992752 54.83828939 124.31443779 54.79248047 121.83886719 C54.76427933 120.12021831 54.74306046 118.40143995 54.72900391 116.68261719 C54.70756167 114.20961253 54.66090844 111.73816325 54.609375 109.265625 C54.60814636 108.49881409 54.60691772 107.73200317 54.60565186 106.94195557 C54.51527705 103.63999799 54.21988899 101.35820171 52.47851562 98.52148438 C48.98364748 96.3760925 45.71818543 96.39700814 41.734375 96.390625 C40.94097717 96.37408875 40.14757935 96.35755249 39.33013916 96.34051514 C36.80334731 96.29204384 34.27715719 96.27066713 31.75 96.25 C30.03382391 96.22183943 28.31767584 96.19191188 26.6015625 96.16015625 C22.4007652 96.08296558 18.20186631 96.04244309 14 96 C14 87.42 14 78.84 14 70 C17.63 69.67 21.26 69.34 25 69 C27.8213337 67.59912251 27.8213337 67.59912251 29 65 C29.66676878 61.45749949 29.66676878 61.45749949 29 58 C27.2448018 55.9758566 25.79240501 55.11841949 23.13124847 54.72072792 C20.72197401 54.58876192 18.32991771 54.56362185 15.91699219 54.56762695 C14.99957245 54.5574353 14.08215271 54.54724365 13.13693237 54.53674316 C10.10685149 54.50656736 7.07708652 54.49734014 4.046875 54.48828125 C1.94507798 54.47143798 -0.15670895 54.45328822 -2.25848389 54.43388367 C-7.78878627 54.38633942 -13.31904773 54.35655858 -18.8494873 54.33044434 C-24.49349043 54.30066121 -30.13735249 54.25412315 -35.78125 54.20898438 C-46.85409294 54.12290086 -57.92696487 54.05557795 -69 54 C-69.10137822 47.09501681 -69.1714562 40.19022535 -69.21972656 33.28466797 C-69.23984814 30.93531116 -69.26714851 28.58600446 -69.30175781 26.23681641 C-69.3502504 22.86087685 -69.37296357 19.48559914 -69.390625 16.109375 C-69.41127014 15.05820496 -69.43191528 14.00703491 -69.45318604 12.92401123 C-69.45540671 5.71556433 -69.45540671 5.71556433 -67.30078125 2.33007812 C-64.55828641 0.74464605 -62.95352124 0.53596462 -59.796875 0.609375 C-58.8171875 0.62226562 -57.8375 0.63515625 -56.828125 0.6484375 C-55.81234375 0.68195312 -54.7965625 0.71546875 -53.75 0.75 C-52.71875 0.76804688 -51.6875 0.78609375 -50.625 0.8046875 C-48.08238936 0.85177288 -45.54166838 0.9175195 -43 1 C-42.98541748 1.57967529 -42.97083496 2.15935059 -42.95581055 2.7565918 C-42.88101472 5.40087553 -42.78446102 8.04394002 -42.6875 10.6875 C-42.66494141 11.59951172 -42.64238281 12.51152344 -42.61914062 13.45117188 C-42.42235489 18.37081532 -42.26212644 22.0451751 -39 26 C-34.61177587 28.19411207 -28.75300122 27.30951422 -23.87915039 27.35009766 C-22.42325842 27.36664004 -20.9674471 27.39390836 -19.51196289 27.43212891 C-17.40728877 27.48708123 -15.30451493 27.50879616 -13.19921875 27.5234375 C-11.30949341 27.5531665 -11.30949341 27.5531665 -9.3815918 27.58349609 C-5.24306444 27.20402204 -5.24306444 27.20402204 -1 22 C-0.67 14.74 -0.34 7.48 0 0 Z " fill="#DB626D" transform="translate(84,56)"/>
<path d="M0 0 C22.44 0 44.88 0 68 0 C68.11017598 44.88501519 68.20251639 89.76990311 68.25532665 134.65501476 C68.26158037 139.95108105 68.26805196 145.24714704 68.2746582 150.54321289 C68.27596976 151.59758835 68.27728131 152.65196382 68.2786326 153.73829005 C68.30040408 170.82275296 68.33983519 187.90713196 68.38576398 204.99154504 C68.43248016 222.51466625 68.46028515 240.03774343 68.47044247 257.56092435 C68.47731168 268.37842237 68.49902681 279.19568325 68.53958233 290.01310829 C68.56596098 297.42557516 68.57401208 304.83791899 68.56750689 312.25042941 C68.56429637 316.53059982 68.56930414 320.81035513 68.59602737 325.09045219 C68.62030308 329.0070468 68.62162521 332.92294595 68.60449447 336.83957211 C68.60237632 338.258239 68.6087677 339.67694873 68.62441591 341.09553089 C68.74844441 353.03093805 68.74844441 353.03093805 65.64948273 356.33757782 C62.39809227 358.37766797 60.47663582 358.60597831 56.64916992 358.56762695 C55.3882402 358.5672493 54.12731049 358.56687164 52.82817078 358.56648254 C51.46225994 358.54095324 50.09635931 358.51487333 48.73046875 358.48828125 C47.32515218 358.47894859 45.91981928 358.47183461 44.51448059 358.46684265 C40.82661541 358.44780772 37.13974449 358.39873971 33.45227051 358.34332275 C29.68511402 358.29205304 25.91779589 358.2693123 22.15039062 358.24414062 C14.76642264 358.19061499 7.38347764 358.10271071 0 358 C0 349.42 0 340.84 0 332 C2.48015625 331.95101563 4.9603125 331.90203125 7.515625 331.8515625 C9.92177279 331.7975284 12.32782229 331.74023051 14.73388672 331.68261719 C16.40405941 331.64437143 18.07431323 331.60951085 19.74462891 331.578125 C22.14775557 331.53237839 24.55032584 331.47440075 26.953125 331.4140625 C27.69806213 331.40251129 28.44299927 331.39096008 29.21051025 331.37905884 C34.44359341 331.27207983 34.44359341 331.27207983 39 329 C41.60095953 325.24704839 41.28869615 321.19324296 41.2746582 316.80664062 C41.27976913 315.98342819 41.28488007 315.16021576 41.29014587 314.3120575 C41.3040358 311.59338087 41.30308577 308.87495787 41.30078125 306.15625 C41.30466808 304.26582749 41.30900273 302.37540585 41.31376648 300.48498535 C41.32122708 296.52397835 41.32093825 292.56306049 41.31567383 288.60205078 C41.30987484 283.52427511 41.32682132 278.44686368 41.3500185 273.36914825 C41.36474311 269.46581893 41.36562936 265.56257764 41.36250877 261.65922546 C41.36302248 259.78691384 41.36826938 257.91459734 41.37832069 256.04231262 C41.39064521 253.42575316 41.38391795 250.80990725 41.37231445 248.19335938 C41.37995819 247.41921188 41.38760193 246.64506439 41.39547729 245.84745789 C41.36422573 242.66219828 41.20348425 240.37315712 39.66423035 237.55041504 C29.95166314 228.5020821 13.268857 234.3791102 0 234 C0 156.78 0 79.56 0 0 Z " fill="#DDE8ED" transform="translate(429,125)"/>
<path d="M0 0 C22.44 0 44.88 0 68 0 C68 8.91 68 17.82 68 27 C64.43703125 27.02578125 60.8740625 27.0515625 57.203125 27.078125 C53.7544767 27.11653125 50.30597864 27.16169624 46.85742188 27.20751953 C44.4597083 27.23575465 42.06190121 27.25695646 39.6640625 27.27099609 C36.21826203 27.29238972 32.77358905 27.3390238 29.328125 27.390625 C27.71855927 27.39246796 27.71855927 27.39246796 26.07647705 27.39434814 C24.57537384 27.42392609 24.57537384 27.42392609 23.04394531 27.45410156 C22.16458313 27.46298401 21.28522095 27.47186646 20.37921143 27.48101807 C17.16796499 28.18149339 15.9744578 29.40793197 14 32 C13.40312013 34.21589827 13.40312013 34.21589827 13.48242188 36.61328125 C13.46981323 37.52102295 13.45720459 38.42876465 13.44421387 39.36401367 C13.45231079 40.33701416 13.46040771 41.31001465 13.46875 42.3125 C13.4649231 43.31837158 13.46109619 44.32424316 13.45715332 45.3605957 C13.45443349 47.48552451 13.46179959 49.61048676 13.47851562 51.73535156 C13.49992359 54.98838932 13.47871568 58.23921845 13.453125 61.4921875 C13.45576826 63.55729654 13.46089321 65.62240421 13.46875 67.6875 C13.45660461 69.14700073 13.45660461 69.14700073 13.44421387 70.63598633 C13.48559457 75.92568691 13.48559457 75.92568691 15.70800781 80.60644531 C18.4046953 82.24605888 20.05835815 82.53624089 23.203125 82.609375 C24.67265625 82.65771484 24.67265625 82.65771484 26.171875 82.70703125 C27.69554687 82.72830078 27.69554687 82.72830078 29.25 82.75 C30.28125 82.77964844 31.3125 82.80929688 32.375 82.83984375 C34.91674495 82.91044778 37.45757783 82.96319009 40 83 C40.01458252 84.03406982 40.02916504 85.06813965 40.04418945 86.13354492 C40.10230882 89.98236082 40.17954023 93.83059999 40.26245117 97.67895508 C40.29563655 99.34227108 40.32368834 101.00569796 40.34643555 102.66918945 C40.38009999 105.06509499 40.4324194 107.45999035 40.48828125 109.85546875 C40.49467117 110.5952446 40.5010611 111.33502045 40.50764465 112.09721375 C40.63329971 116.54308862 41.2548976 119.46144732 44 123 C51.18021974 126.59010987 59.98055056 124.63547957 68 125 C68 201.89 68 278.78 68 358 C46.88 358 25.76 358 4 358 C-0.5 352.375 -0.5 352.375 -0.49219131 346.87182903 C-0.50015551 345.63223515 -0.5081197 344.39264127 -0.51632524 343.11548394 C-0.5049138 341.74281371 -0.49313143 340.37014652 -0.48101807 338.9974823 C-0.48276241 337.53710946 -0.4862648 336.07673783 -0.49137473 334.61637288 C-0.50032562 330.60275387 -0.48430977 326.58956121 -0.46426249 322.57599652 C-0.4470034 318.24816404 -0.45283309 313.92035599 -0.45587158 309.59249878 C-0.45796992 302.09400413 -0.44541016 294.5956486 -0.42292023 287.09718895 C-0.3904247 276.25567225 -0.37999572 265.41422288 -0.37496826 254.57266275 C-0.36621177 236.9833809 -0.33958657 219.39417322 -0.30175781 201.80493164 C-0.2650469 184.71769583 -0.23673063 167.63048017 -0.21972656 150.54321289 C-0.21867567 149.49011707 -0.21762477 148.43702125 -0.21654204 147.35201343 C-0.21132192 142.06898958 -0.20626708 136.78596558 -0.20129442 131.50294149 C-0.15982134 87.66856179 -0.08607753 43.83431926 0 0 Z " fill="#F0F3F5" transform="translate(15,125)"/>
<path d="M0 0 C22.44 0 44.88 0 68 0 C68 77.22 68 154.44 68 234 C51.5 234.33 35 234.66 18 235 C17.01 235.33 16.02 235.66 15 236 C14.06726352 238.79820944 13.86886639 240.51398426 13.85473633 243.40795898 C13.84835648 244.29575546 13.84197662 245.18355194 13.83540344 246.09825134 C13.83429062 247.05453934 13.8331778 248.01082733 13.83203125 248.99609375 C13.82870285 249.98118423 13.82537445 250.96627472 13.82194519 251.98121643 C13.81688166 254.06502821 13.81453669 256.14884809 13.81469727 258.23266602 C13.81251095 261.42152247 13.79434957 264.6100329 13.77539062 267.79882812 C13.77245657 269.82291548 13.77047186 271.84700448 13.76953125 273.87109375 C13.76234573 274.82535751 13.75516022 275.77962128 13.74775696 276.76280212 C13.75083359 277.65375076 13.75391022 278.5446994 13.75708008 279.46264648 C13.75565506 280.24413559 13.75423004 281.02562469 13.75276184 281.83079529 C14.03425065 284.30050648 14.68798942 285.89699134 16 288 C18.51677113 289.25838557 20.41293288 289.20818973 23.2265625 289.31640625 C24.2578125 289.35830078 25.2890625 289.40019531 26.3515625 289.44335938 C27.97191406 289.50233398 27.97191406 289.50233398 29.625 289.5625 C30.71296875 289.60568359 31.8009375 289.64886719 32.921875 289.69335938 C35.6144517 289.7996453 38.30712253 289.90168057 41 290 C41.0093457 291.09989258 41.01869141 292.19978516 41.02832031 293.33300781 C41.06822937 297.41854166 41.13399004 301.50332319 41.20751953 305.58837891 C41.23572397 307.35553311 41.25694118 309.12281334 41.27099609 310.89013672 C41.29243358 313.43262222 41.33908503 315.97359338 41.390625 318.515625 C41.39185364 319.30430969 41.39308228 320.09299438 41.39434814 320.90557861 C41.48679134 324.37696709 41.72422997 326.59876561 43.71289062 329.4921875 C46.41602668 331.27427207 47.98297429 331.53448777 51.203125 331.609375 C52.08645508 331.63999023 52.96978516 331.67060547 53.87988281 331.70214844 C54.99202148 331.71793945 56.10416016 331.73373047 57.25 331.75 C60.7975 331.8325 64.345 331.915 68 332 C68 340.58 68 349.16 68 358 C45.56 358 23.12 358 0 358 C0 308.17 0 258.34 0 207 C12.21 206.67 24.42 206.34 37 206 C40.43510602 202.56489398 41.11487568 201.43539193 41.19287109 196.81323242 C41.20893402 195.94860886 41.22499695 195.08398529 41.24154663 194.19316101 C41.28600609 190.23709897 41.3270618 186.28120462 41.35009766 182.32495117 C41.36665749 180.23857469 41.39394778 178.15225493 41.43212891 176.06616211 C41.48690264 173.0581316 41.50877242 170.05143083 41.5234375 167.04296875 C41.54610687 166.112603 41.56877625 165.18223724 41.59213257 164.22367859 C41.58928253 163.34959854 41.5864325 162.47551849 41.58349609 161.57495117 C41.59158295 160.81043137 41.5996698 160.04591156 41.60800171 159.25822449 C40.96922131 156.13762476 40.96922131 156.13762476 36 152 C18.18 151.505 18.18 151.505 0 151 C0 101.17 0 51.34 0 0 Z " fill="#EFF2F4" transform="translate(346,125)"/>
<path d="M0 0 C22.44 0 44.88 0 68 0 C68 63.36 68 126.72 68 192 C65.03 192.33 62.06 192.66 59 193 C56.47947335 194.13568743 56.47947335 194.13568743 55 196 C54.67 197.32 54.34 198.64 54 200 C47.4 200 40.8 200 34 200 C33.01 198.02 32.02 196.04 31 194 C21.73837067 189.36918534 10.34866561 192.35685054 0 192 C0 128.64 0 65.28 0 0 Z " fill="#F0F3F5" transform="translate(98,291)"/>
<path d="M0 0 C22.11 0 44.22 0 67 0 C67 49.5 67 99 67 150 C57.1 150.495 57.1 150.495 47 151 C43.2444506 155.33649122 43.2444506 155.33649122 42 158 C38.91738544 158.1746397 35.83604167 158.28094067 32.75 158.375 C31.87730469 158.42527344 31.00460937 158.47554687 30.10546875 158.52734375 C27.60293001 158.5846538 25.4396564 158.56970621 23 158 C20.515625 155.0390625 20.515625 155.0390625 19 152 C13.3039975 149.15199875 6.35733504 150.37396088 0 150 C0 100.5 0 51 0 0 Z " fill="#F0F3F5" transform="translate(264,126)"/>
<path d="M0 0 C8.58 0 17.16 0 26 0 C26.00410889 2.30637451 26.00821777 4.61274902 26.01245117 6.98901367 C26.02965525 14.61272256 26.07416775 22.23609627 26.13209057 29.85959911 C26.16636895 34.48141648 26.19147184 39.10290301 26.19555664 43.72485352 C26.19983782 48.18609521 26.22828498 52.64659049 26.27343178 57.10759926 C26.28641266 58.80877649 26.29071235 60.51004301 26.28615379 62.21126366 C26.28125166 64.59633153 26.30731863 66.97921455 26.34057617 69.36401367 C26.32763771 70.4170594 26.32763771 70.4170594 26.31443787 71.49137878 C26.44924253 77.26506767 27.4037287 77.4037287 32 82 C43.88 82.33 55.76 82.66 68 83 C68 118.97 68 154.94 68 192 C45.56 192 23.12 192 0 192 C0 128.64 0 65.28 0 0 Z " fill="#F0F3F5" transform="translate(181,291)"/>
<path d="M0 0 C8.58 0 17.16 0 26 0 C26 49.5 26 99 26 150 C3.56 150 -18.88 150 -42 150 C-42 114.03 -42 78.06 -42 41 C-30.12 40.67 -18.24 40.34 -6 40 C-0.87244163 35.18402744 -0.87244163 35.18402744 -0.28105164 29.09721375 C-0.28695061 27.98754997 -0.28695061 27.98754997 -0.29296875 26.85546875 C-0.27784744 26.08568192 -0.26272614 25.31589508 -0.24714661 24.52278137 C-0.20434737 22.07738782 -0.1954399 19.6332304 -0.1875 17.1875 C-0.16434939 15.52405586 -0.13898287 13.86064098 -0.11132812 12.19726562 C-0.04439945 8.13084162 -0.02336617 4.06783776 0 0 Z " fill="#F0F3F5" transform="translate(305,333)"/>
<path d="M0 0 C22.11 0 44.22 0 67 0 C67 49.5 67 99 67 150 C58.42 150 49.84 150 41 150 C40.97421875 147.44765625 40.9484375 144.8953125 40.921875 142.265625 C40.88344696 139.78992752 40.83828939 137.31443779 40.79248047 134.83886719 C40.76427933 133.12021831 40.74306046 131.40143995 40.72900391 129.68261719 C40.70756167 127.20961253 40.66090844 124.73816325 40.609375 122.265625 C40.60814636 121.49881409 40.60691772 120.73200317 40.60565186 119.94195557 C40.45987714 114.61589243 40.05247626 114.05247626 36 110 C24.12 109.67 12.24 109.34 0 109 C0 73.03 0 37.06 0 0 Z " fill="#F0F3F5" transform="translate(181,126)"/>
<path d="M0 0 C11.55 0 23.1 0 35 0 C35 76.89 35 153.78 35 233 C23.45 233 11.9 233 0 233 C0 156.11 0 79.22 0 0 Z " fill="#F0F3F5" transform="translate(430,126)"/>
<path d="M0 0 C0.495 0.99 0.495 0.99 1 2 C7.27 2 13.54 2 20 2 C20.33 1.34 20.66 0.68 21 0 C21.28875 1.134375 21.5775 2.26875 21.875 3.4375 C22.24625 4.613125 22.6175 5.78875 23 7 C25.7113221 8.35566105 27.88307998 8.16231085 30.91845703 8.20532227 C32.78016037 8.2352401 32.78016037 8.2352401 34.67947388 8.26576233 C36.0389188 8.2827466 37.39836505 8.29962541 38.7578125 8.31640625 C40.14501567 8.33697581 41.53221257 8.35797228 42.91940308 8.37937927 C46.57227505 8.43459981 50.22520359 8.48400911 53.87817383 8.53222656 C57.60503164 8.58244175 61.33180825 8.63807474 65.05859375 8.69335938 C72.37233381 8.80145425 79.6861181 8.900477 87 9 C87 17.91 87 26.82 87 36 C37.17 36 -12.66 36 -64 36 C-64 27.09 -64 18.18 -64 9 C-57.55533203 8.94392578 -57.55533203 8.94392578 -50.98046875 8.88671875 C-47.55616414 8.84861653 -44.13192387 8.80754373 -40.70767975 8.7644577 C-37.09216924 8.71978142 -33.47677507 8.68034962 -29.86108398 8.65356445 C-26.37900415 8.62756759 -22.89736161 8.58719205 -19.41555214 8.53681374 C-17.43974801 8.51199236 -15.4637748 8.50209061 -13.48783875 8.49235535 C-11.68631096 8.46266411 -11.68631096 8.46266411 -9.84838867 8.43237305 C-8.78915695 8.42126999 -7.72992523 8.41016693 -6.63859558 8.39872742 C-3.98188313 8.20925354 -3.98188313 8.20925354 -2.17744446 6.64094543 C-0.64578464 4.50634777 -0.34825832 2.57711159 0 0 Z " fill="#3E70C3" transform="translate(286,282)"/>
<path d="M0 0 C3.24931927 -0.17455021 6.49743448 -0.28091753 9.75 -0.375 C11.13058594 -0.45041016 11.13058594 -0.45041016 12.5390625 -0.52734375 C13.87324219 -0.55634766 13.87324219 -0.55634766 15.234375 -0.5859375 C16.45979004 -0.63306885 16.45979004 -0.63306885 17.70996094 -0.68115234 C20 0 20 0 24 6 C37.86 6.495 37.86 6.495 52 7 C52 29.44 52 51.88 52 75 C43.09 75 34.18 75 25 75 C24.97421875 72.44765625 24.9484375 69.8953125 24.921875 67.265625 C24.88344696 64.78992752 24.83828939 62.31443779 24.79248047 59.83886719 C24.76427933 58.12021831 24.74306046 56.40143995 24.72900391 54.68261719 C24.70756167 52.20961253 24.66090844 49.73816325 24.609375 47.265625 C24.60814636 46.49881409 24.60691772 45.73200317 24.60565186 44.94195557 C24.51527705 41.63999799 24.21988899 39.35820171 22.47851562 36.52148438 C18.98364748 34.3760925 15.71818543 34.39700814 11.734375 34.390625 C10.54427826 34.36582062 10.54427826 34.36582062 9.33013916 34.34051514 C6.80334731 34.29204384 4.27715719 34.27066713 1.75 34.25 C0.03382391 34.22183943 -1.68232416 34.19191188 -3.3984375 34.16015625 C-7.5992348 34.08296558 -11.79813369 34.04244309 -16 34 C-16 25.42 -16 16.84 -16 8 C-10.555 7.505 -10.555 7.505 -5 7 C-1.87115797 4.76511283 -1.21033741 3.63101224 0 0 Z " fill="#EDF0F2" transform="translate(114,118)"/>
<path d="M0 0 C35.97 0 71.94 0 109 0 C109 8.58 109 17.16 109 26 C73.03 26 37.06 26 0 26 C0 17.42 0 8.84 0 0 Z " fill="#9BD069" transform="translate(98,250)"/>
<path d="M0 0 C31.68 0 63.36 0 96 0 C96 8.91 96 17.82 96 27 C64.32 27 32.64 27 0 27 C0 18.09 0 9.18 0 0 Z " fill="#87C24F" transform="translate(70,208)"/>
<path d="M0 0 C26.73 0 53.46 0 81 0 C81 8.58 81 17.16 81 26 C54.27 26 27.54 26 0 26 C0 17.42 0 8.84 0 0 Z " fill="#E28424" transform="translate(374,374)"/>
<path d="M0 0 C26.73 0 53.46 0 81 0 C81 8.58 81 17.16 81 26 C54.27 26 27.54 26 0 26 C0 17.42 0 8.84 0 0 Z " fill="#9BD069" transform="translate(43,167)"/>
<path d="M0 0 C22.44 0 44.88 0 68 0 C68 8.58 68 17.16 68 26 C45.56 26 23.12 26 0 26 C0 17.42 0 8.84 0 0 Z " fill="#3A65C0" transform="translate(222,333)"/>
<path d="M0 0 C18.15 0 36.3 0 55 0 C55 8.91 55 17.82 55 27 C36.85 27 18.7 27 0 27 C0 18.09 0 9.18 0 0 Z " fill="#D46435" transform="translate(401,415)"/>
<path d="M0 0 C0.33 0 0.66 0 1 0 C1 63.36 1 126.72 1 192 C-1.97 192.33 -4.94 192.66 -8 193 C-10.52052665 194.13568743 -10.52052665 194.13568743 -12 196 C-12.33 197.32 -12.66 198.64 -13 200 C-19.6 200 -26.2 200 -33 200 C-33.99 198.02 -34.98 196.04 -36 194 C-38.84535725 192.57732138 -41.36218552 192.78028131 -44.5390625 192.68359375 C-45.84101562 192.64169922 -47.14296875 192.59980469 -48.484375 192.55664062 C-49.86458045 192.51682701 -51.24478883 192.47711478 -52.625 192.4375 C-54.01303415 192.39430593 -55.40105528 192.35069135 -56.7890625 192.30664062 C-60.19260256 192.20028 -63.59621778 192.09825286 -67 192 C-67 188.04 -67 184.08 -67 180 C-44.89 180 -22.78 180 0 180 C0 120.6 0 61.2 0 0 Z " fill="#D4DEE2" transform="translate(165,291)"/>
<path d="M0 0 C11.55 0 23.1 0 35 0 C35 0.33 35 0.66 35 1 C23.78 1 12.56 1 1 1 C1 46.54 1 92.08 1 139 C37.38821118 139.26405133 37.38821118 139.26405133 68 134 C68 139.61 68 145.22 68 151 C45.56 151 23.12 151 0 151 C0 101.17 0 51.34 0 0 Z " fill="#D1DBDF" transform="translate(346,332)"/>
<path d="M0 0 C0.33 0 0.66 0 1 0 C1 76.89 1 153.78 1 233 C-20.12 233 -41.24 233 -63 233 C-67 228 -67 228 -67 221 C-44.89 221 -22.78 221 0 221 C0 148.07 0 75.14 0 0 Z " fill="#D9E3E7" transform="translate(82,250)"/>
<path d="M0 0 C0.33 0 0.66 0 1 0 C1 32.01 1 64.02 1 97 C23.11 97 45.22 97 68 97 C68 100.96 68 104.92 68 109 C45.56 109 23.12 109 0 109 C0 73.03 0 37.06 0 0 Z " fill="#D2DCE1" transform="translate(263,374)"/>
<path d="M0 0 C0.33 0 0.66 0 1 0 C1 35.97 1 71.94 1 109 C-21.44 109 -43.88 109 -67 109 C-67 105.04 -67 101.08 -67 97 C-44.89 97 -22.78 97 0 97 C0 64.99 0 32.98 0 0 Z " fill="#D2DCE1" transform="translate(248,374)"/>
<path d="M0 0 C4.29 0 8.58 0 13 0 C13 13.2 13 26.4 13 40 C8.71 40 4.42 40 0 40 C0 26.8 0 13.6 0 0 Z " fill="#C9DADF" transform="translate(443,29)"/>
<path d="M0 0 C4.29 0 8.58 0 13 0 C13 13.2 13 26.4 13 40 C8.71 40 4.42 40 0 40 C0 26.8 0 13.6 0 0 Z " fill="#C9DBE0" transform="translate(346,29)"/>
<path d="M0 0 C4.29 0 8.58 0 13 0 C13 13.2 13 26.4 13 40 C8.71 40 4.42 40 0 40 C0 26.8 0 13.6 0 0 Z " fill="#C9DBE0" transform="translate(153,29)"/>
<path d="M0 0 C4.29 0 8.58 0 13 0 C13 13.2 13 26.4 13 40 C8.71 40 4.42 40 0 40 C0 26.8 0 13.6 0 0 Z " fill="#C9DADF" transform="translate(56,29)"/>
<path d="M0 0 C3.96 0 7.92 0 12 0 C12 13.2 12 26.4 12 40 C8.04 40 4.08 40 0 40 C0 26.8 0 13.6 0 0 Z " fill="#D0E2E7" transform="translate(250,29)"/>
<path d="M0 0 C0.33 0 0.66 0 1 0 C1 2.97 1 5.94 1 9 C-0.98 9 -2.96 9 -5 9 C-3.35 6.03 -1.7 3.06 0 0 Z " fill="#DD542E" transform="translate(454,432)"/>
</svg>
