<svg id="SvgjsSvg1154" width="288" height="288" xmlns="http://www.w3.org/2000/svg" version="1.1" xmlns:xlink="http://www.w3.org/1999/xlink" xmlns:svgjs="http://svgjs.com/svgjs"><defs id="SvgjsDefs1155"></defs><g id="SvgjsG1156"><svg xmlns="http://www.w3.org/2000/svg" enable-background="new 0 0 64 64" viewBox="0 0 64 64" width="288" height="288"><path d="M20.6 3.4c0 .03.01.06.02.1 0 .02 0 .05.01.07 0 .01.01.02.02.03 0 .01 0 .02.01.03.01.01.02.02.03.03.03.05.08.1.13.14.02.01.03.03.05.04.01.01.02.02.03.02l3.2 1.43c.07.03.13.04.2.04.19 0 .37-.11.45-.29.11-.25 0-.54-.25-.65l-2.23-1c6.37-2.97 12.82-2.9 19.18.25.24.12.54.02.66-.22.12-.24.02-.54-.22-.66C35.32-.5 28.68-.63 22.12 2.35L22.9.7c.12-.25.01-.54-.24-.66-.25-.12-.54-.01-.65.24l-1.37 2.9c0 .01 0 .02-.01.03-.01.03-.02.06-.02.1C20.6 3.34 20.59 3.37 20.6 3.4zM.31 41.69l2.7 1.5c.01 0 .01 0 .02.01.01 0 .01.01.02.01.06.03.13.04.2.04.08 0 .16-.03.23-.07.02-.01.03-.02.05-.03.02-.01.03-.02.05-.03.02-.02.03-.06.05-.08C3.65 43.02 3.68 43 3.7 42.96l1.32-2.98c.11-.25 0-.54-.25-.65-.25-.11-.54 0-.65.25L3.27 41.5C.62 34.66.63 28.23 3.3 22.36c.11-.25 0-.54-.24-.65-.25-.11-.54 0-.65.24-2.76 6.06-2.8 12.68-.13 19.7l-1.48-.82c-.24-.13-.54-.05-.67.19C-.01 41.26.07 41.56.31 41.69zM63.66 22.07l-3.11-1.47c-.01 0-.02 0-.02-.01-.04-.01-.07-.02-.11-.03-.03 0-.05-.01-.08-.01-.04 0-.08.01-.11.02-.02.01-.05 0-.07.01 0 0-.01 0-.01.01 0 0-.01 0-.01 0-.04.02-.07.05-.1.08-.02.01-.04.02-.05.04-.04.05-.08.11-.1.17 0 0 0 0 0 0l-1.05 3.2c-.08.26.06.54.32.62.05.02.1.02.15.02.21 0 .4-.13.47-.34l.65-2c2.91 6.67 2.94 13.12.08 19.19-.12.25-.01.54.24.66.07.03.14.05.21.05.18 0 .36-.1.45-.28 2.98-6.33 2.96-13.03-.04-19.95l1.9.89c.24.12.54.01.65-.24C64.01 22.48 63.91 22.19 63.66 22.07zM43.16 60.49c0-.08-.04-.16-.08-.23-.01-.02-.02-.03-.04-.05-.05-.06-.1-.11-.18-.14-.01 0-.01-.01-.02-.01l-3.11-1.24c-.25-.1-.54.02-.64.27-.1.25.02.54.27.64l2.07.83c-6.19 2.81-12.6 2.77-19.07-.14-.25-.11-.54 0-.65.25-.11.25 0 .54.25.65 3.42 1.54 6.82 2.31 10.19 2.31 3.25 0 6.46-.72 9.62-2.15l-.65 1.76c-.09.26.04.54.29.63.06.02.11.03.17.03.2 0 .39-.12.46-.32l1.07-2.89c.02-.06.03-.12.03-.18C43.16 60.5 43.16 60.5 43.16 60.49 43.16 60.49 43.16 60.49 43.16 60.49zM11.39 22.95c6.23 0 11.3-5.07 11.3-11.31 0-6.23-5.07-11.3-11.3-11.3-6.24 0-11.31 5.07-11.31 11.3C.08 17.88 5.15 22.95 11.39 22.95zM11.39 1.32c5.69 0 10.32 4.63 10.32 10.32s-4.63 10.32-10.32 10.32c-5.7 0-10.33-4.63-10.33-10.32S5.69 1.32 11.39 1.32z" fill="#e0dbdb" class="color000 svgShape"></path><path d="M52.54 22.95c6.24 0 11.31-5.07 11.31-11.31 0-6.23-5.07-11.3-11.31-11.3-6.23 0-11.3 5.07-11.3 11.3C41.24 17.88 46.31 22.95 52.54 22.95zM52.54 1.32c5.69 0 10.32 4.63 10.32 10.32s-4.63 10.32-10.32 10.32-10.32-4.63-10.32-10.32S46.85 1.32 52.54 1.32zM11.39 41.39c-6.24 0-11.31 5.07-11.31 11.3C.08 58.93 5.15 64 11.39 64c6.23 0 11.3-5.07 11.3-11.31C22.69 46.46 17.62 41.39 11.39 41.39zM11.39 63.02c-5.7 0-10.33-4.63-10.33-10.33 0-5.69 4.63-10.32 10.33-10.32 5.69 0 10.32 4.63 10.32 10.32C21.71 58.39 17.08 63.02 11.39 63.02zM52.54 41.39c-6.23 0-11.3 5.07-11.3 11.3 0 6.24 5.07 11.31 11.3 11.31 6.24 0 11.31-5.07 11.31-11.31C63.85 46.46 58.78 41.39 52.54 41.39zM52.54 63.02c-5.69 0-10.32-4.63-10.32-10.33 0-5.69 4.63-10.32 10.32-10.32S62.86 47 62.86 52.69C62.86 58.39 58.23 63.02 52.54 63.02z" fill="#e0dbdb" class="color000 svgShape"></path><path d="M58.56 46.82H46.52c-.03 0-.07 0-.1.01-.76.05-1.37.68-1.37 1.46v7.45h-.12c-.27 0-.49.22-.49.49 0 1.29 1.05 2.34 2.34 2.34h11.53c1.29 0 2.34-1.05 2.34-2.34 0-.27-.22-.49-.5-.49h-.11v-7.45C60.04 47.48 59.38 46.82 58.56 46.82zM46.03 48.29c0-.27.22-.49.49-.49h12.04c.27 0 .49.22.49.49v7.45H46.03V48.29zM19 55.74h-.12v-7.45c0-.81-.66-1.47-1.47-1.47H5.36c-.03 0-.07 0-.1.01-.76.05-1.37.68-1.37 1.46v7.45H3.77c-.27 0-.49.22-.49.49 0 1.29 1.05 2.34 2.34 2.34h11.53c1.29 0 2.34-1.05 2.34-2.34C19.49 55.96 19.27 55.74 19 55.74zM4.88 48.29c0-.27.21-.49.48-.49h12.05c.27 0 .48.22.48.49v7.45H4.88V48.29zM46.78 17.52h11.53c1.29 0 2.34-1.05 2.34-2.34 0-.27-.22-.49-.5-.49h-.11V7.24c0-.81-.66-1.48-1.48-1.48H46.52c-.03 0-.07 0-.1.01-.76.05-1.37.69-1.37 1.47v7.45h-.12c-.27 0-.49.22-.49.49C44.44 16.47 45.49 17.52 46.78 17.52zM46.03 7.24c0-.27.22-.49.49-.49h12.04c.27 0 .49.22.49.49v7.45H46.03V7.24zM17.15 17.52c1.29 0 2.34-1.05 2.34-2.34 0-.27-.22-.49-.49-.49h-.12V7.24c0-.81-.66-1.48-1.47-1.48H5.36c-.03 0-.07 0-.1.01C4.5 5.82 3.89 6.46 3.89 7.24v7.45H3.77c-.27 0-.49.22-.49.49 0 1.29 1.05 2.34 2.34 2.34H17.15zM4.88 7.24c0-.27.21-.49.48-.49h12.05c.27 0 .48.22.48.49v7.45H4.88V7.24z" fill="#e0dbdb" class="color000 svgShape"></path></svg></g></svg>