<svg id="SvgjsSvg1317" width="288" height="288" xmlns="http://www.w3.org/2000/svg" version="1.1" xmlns:xlink="http://www.w3.org/1999/xlink" xmlns:svgjs="http://svgjs.com/svgjs"><defs id="SvgjsDefs1318"></defs><g id="SvgjsG1319"><svg xmlns="http://www.w3.org/2000/svg" fill="none" viewBox="0 0 168 168" width="288" height="288"><path fill="#ece1e1" d="M127.875 131H98.75L65 75.375V103.188V131H40.25V84.125V37.25H69.375L103.125 93.0625V65.1562V37.25H127.875V84.125V131Z" class="color000 svgShape"></path><path fill="#ffffff" fill-rule="evenodd" d="M65 75.375V131H40.25V37.25H69.375L103.125 93.0625V37.25H127.875V131H98.75L65 75.375ZM67.0934 76.8974L99.051 129.568L126.875 84.787V39.1311L104.125 64.7823V96.6488L101.964 93.075L67.0934 76.8974ZM101.037 91.5428L66.1625 75.3631L64 71.7991V103.559L41.25 129.124V83.463L69.0731 38.6833L101.037 91.5428ZM68.165 38.25L41.25 81.5682V38.25H68.165ZM41.8092 130L64 105.063V130H41.8092ZM104.125 63.2752L126.32 38.25H104.125V63.2752ZM126.875 86.6818L99.96 130H126.875V86.6818Z" clip-rule="evenodd" class="colorfff svgShape"></path></svg></g></svg>